<svg width="57" height="56" viewBox="0 0 57 56" fill="none" xmlns="http://www.w3.org/2000/svg">
<rect x="0.333313" width="56" height="56" rx="8" fill="white"/>
<path d="M35.8333 31.3334V24.6667C35.833 24.3744 35.7559 24.0874 35.6096 23.8343C35.4633 23.5813 35.2531 23.3712 35 23.225L29.1666 19.8917C28.9133 19.7454 28.6259 19.6684 28.3333 19.6684C28.0408 19.6684 27.7533 19.7454 27.5 19.8917L21.6666 23.225C21.4135 23.3712 21.2033 23.5813 21.057 23.8343C20.9108 24.0874 20.8336 24.3744 20.8333 24.6667V31.3334C20.8336 31.6256 20.9108 31.9127 21.057 32.1657C21.2033 32.4188 21.4135 32.6289 21.6666 32.775L27.5 36.1084C27.7533 36.2546 28.0408 36.3316 28.3333 36.3316C28.6259 36.3316 28.9133 36.2546 29.1666 36.1084L35 32.775C35.2531 32.6289 35.4633 32.4188 35.6096 32.1657C35.7559 31.9127 35.833 31.6256 35.8333 31.3334Z" stroke="black" stroke-width="2" stroke-linecap="round" stroke-linejoin="round"/>
<path d="M21.0583 23.8L28.3333 28.0083L35.6083 23.8" stroke="black" stroke-width="2" stroke-linecap="round" stroke-linejoin="round"/>
<path d="M28.3333 36.4V28" stroke="black" stroke-width="2" stroke-linecap="round" stroke-linejoin="round"/>
</svg>
